<svg id="lock-help" xmlns="http://www.w3.org/2000/svg" width="70" height="84.858" viewBox="0 0 70 84.858">
  <g id="lock-help-2" data-name="lock-help" transform="translate(-581.006 -920.001)" opacity="0.5">
    <path id="Path_697" data-name="Path 697" d="M625.434,994.716H598.529a12.269,12.269,0,0,1-12.22-12.291V963.541a12.269,12.269,0,0,1,12.22-12.291h26.905a12.268,12.268,0,0,1,12.217,12.291,2.652,2.652,0,1,0,5.3,0,17.613,17.613,0,0,0-10.4-16.059V932.311A12.355,12.355,0,0,0,620.181,920h-16.4a12.357,12.357,0,0,0-12.376,12.31v15.171a17.613,17.613,0,0,0-10.4,16.059v18.884a17.579,17.579,0,0,0,17.523,17.595h26.905a2.652,2.652,0,1,0,0-5.3Zm-28.727-62.405a7.048,7.048,0,0,1,7.072-7.006h16.4a7.046,7.046,0,0,1,7.072,7.006v13.731a17.874,17.874,0,0,0-1.819-.1H598.529a17.965,17.965,0,0,0-1.822.1Z" transform="translate(0 0)" fill="#ff7f40"/>
    <path id="Path_698" data-name="Path 698" d="M590.752,943.183a5.13,5.13,0,1,0,5.131-5.142A5.143,5.143,0,0,0,590.752,943.183Zm5.131.162a.169.169,0,0,1-.175-.162l.175-.159Z" transform="translate(16.099 29.799)" fill="#ff7f40"/>
    <path id="Path_699" data-name="Path 699" d="M605.805,949.043a3.922,3.922,0,1,0,3.914,3.922A3.923,3.923,0,0,0,605.805,949.043Z" transform="translate(34.498 47.972)" fill="#ff7f40"/>
    <path id="Path_700" data-name="Path 700" d="M610.032,938.98a10.735,10.735,0,0,0-10.7,10.743,2.652,2.652,0,1,0,5.3,0,5.4,5.4,0,1,1,5.4,5.439,2.651,2.651,0,0,0-2.652,2.652v4.5a2.652,2.652,0,1,0,5.3,0v-2.182a10.747,10.747,0,0,0-2.652-21.151Z" transform="translate(30.271 31.35)" fill="#ff7f40"/>
  </g>
</svg>
