<?xml version="1.0" standalone="no"?>
<!DOCTYPE svg PUBLIC "-//W3C//DTD SVG 20010904//EN"
 "http://www.w3.org/TR/2001/REC-SVG-20010904/DTD/svg10.dtd">
<svg version="1.0" xmlns="http://www.w3.org/2000/svg"
 width="512.000000pt" height="512.000000pt" viewBox="0 0 512.000000 512.000000"
 preserveAspectRatio="xMidYMid meet">

<g transform="translate(0.000000,512.000000) scale(0.100000,-0.100000)"
fill="#000000" stroke="none">
<path d="M502 4465 c-188 -41 -361 -183 -444 -364 -61 -132 -59 -73 -56 -1574
l3 -1372 27 -73 c38 -105 83 -176 158 -252 76 -75 147 -120 252 -158 l73 -27
1059 -3 1058 -3 -91 98 c-96 102 -147 186 -172 282 l-13 51 -896 2 -896 3 -37
25 c-21 14 -50 43 -65 64 l-27 39 -3 254 -3 253 595 0 c388 0 613 4 648 11 94
19 213 85 288 159 74 75 140 194 159 288 15 71 15 713 0 784 -19 94 -85 213
-159 288 -75 74 -194 140 -288 159 -35 7 -260 11 -648 11 l-595 0 3 253 c3
252 3 254 28 290 14 21 43 50 64 65 l39 27 1997 0 1996 0 37 -25 c21 -14 50
-43 65 -64 l27 -39 3 -560 2 -560 43 -47 c87 -98 147 -230 167 -366 5 -38 10
-193 10 -345 l0 -276 83 -6 c45 -4 92 -9 105 -13 l23 -6 -3 1113 -3 1114 -27
73 c-60 167 -173 297 -319 370 -152 77 6 72 -2214 71 -1641 0 -2001 -3 -2053
-14z m924 -1506 c111 -42 190 -115 239 -222 118 -257 -42 -552 -324 -598 -225
-36 -444 127 -482 360 -28 176 73 366 236 442 110 52 223 58 331 18z"/>
<path d="M3610 2551 c-74 -23 -146 -87 -177 -156 -16 -37 -18 -84 -21 -552
l-3 -513 -260 0 c-282 0 -296 -2 -338 -56 -12 -15 -26 -44 -31 -65 -23 -84
-35 -70 547 -651 297 -296 551 -542 566 -548 42 -15 83 -12 125 9 20 11 272
255 559 543 446 447 523 529 533 565 16 53 6 104 -27 143 -49 58 -57 60 -343
60 l-260 0 0 496 c0 320 -4 510 -11 538 -15 61 -75 134 -134 165 l-50 26 -325
2 c-179 1 -336 -2 -350 -6z"/>
</g>
</svg>
