<?xml version="1.0" standalone="no"?>
<!DOCTYPE svg PUBLIC "-//W3C//DTD SVG 20010904//EN"
 "http://www.w3.org/TR/2001/REC-SVG-20010904/DTD/svg10.dtd">
<svg version="1.0" xmlns="http://www.w3.org/2000/svg"
 width="512.000000pt" height="512.000000pt" viewBox="0 0 512.000000 512.000000"
 preserveAspectRatio="xMidYMid meet">

<g transform="translate(0.000000,512.000000) scale(0.100000,-0.100000)"
fill="#000000" stroke="none">
<path d="M1986 4490 c-457 -72 -817 -418 -902 -866 -24 -129 -15 -335 19 -467
44 -165 145 -356 253 -477 26 -28 44 -53 41 -57 -3 -3 -40 -20 -82 -38 -491
-214 -883 -675 -1030 -1212 -60 -219 -88 -492 -61 -587 19 -63 73 -119 133
-135 25 -7 270 -11 719 -11 l680 0 55 28 c45 22 59 36 82 81 44 88 33 182 -30
252 -62 69 -66 69 -670 69 l-533 0 5 23 c31 144 51 214 85 301 113 288 340
559 607 725 241 149 456 212 788 230 203 11 319 38 461 105 365 173 593 512
611 912 13 266 -63 504 -228 724 -139 184 -353 324 -584 381 -92 23 -324 34
-419 19z m304 -456 c117 -27 206 -78 296 -168 91 -91 141 -180 170 -301 22
-94 15 -264 -15 -355 -127 -396 -610 -562 -963 -331 -244 159 -344 464 -247
754 64 190 232 345 431 397 90 23 238 26 328 4z"/>
<path d="M4090 3188 c-28 -7 -185 -160 -738 -711 -494 -493 -710 -715 -726
-747 -13 -25 -85 -231 -160 -458 -149 -449 -149 -445 -103 -527 29 -52 89 -92
159 -107 l57 -12 388 129 c213 70 415 140 448 155 54 25 129 97 766 736 676
679 707 711 718 758 13 54 8 93 -19 146 -10 19 -153 168 -317 332 -248 246
-305 298 -338 307 -47 13 -87 13 -135 -1z m190 -623 l115 -115 -574 -574 -573
-573 -167 -52 c-91 -28 -169 -51 -172 -51 -4 0 17 75 46 166 l52 166 574 574
c316 316 576 574 579 574 3 0 57 -52 120 -115z"/>
</g>
</svg>
