<?xml version="1.0" standalone="no"?>
<!DOCTYPE svg PUBLIC "-//W3C//DTD SVG 20010904//EN"
 "http://www.w3.org/TR/2001/REC-SVG-20010904/DTD/svg10.dtd">
<svg version="1.0" xmlns="http://www.w3.org/2000/svg"
 width="512.000000pt" height="512.000000pt" viewBox="0 0 512.000000 512.000000"
 preserveAspectRatio="xMidYMid meet">

<g transform="translate(0.000000,512.000000) scale(0.100000,-0.100000)"
fill="#000000" stroke="none">
<path d="M3176 4600 c-34 -11 -82 -54 -102 -92 -18 -35 -18 -99 0 -143 8 -19
13 -35 10 -35 -3 0 -40 9 -82 19 -343 86 -688 73 -1027 -40 -644 -215 -1115
-760 -1241 -1438 -25 -134 -30 -421 -10 -564 28 -198 91 -407 173 -572 56
-112 96 -145 178 -145 62 0 111 25 142 71 43 66 42 103 -10 215 -61 134 -100
249 -128 374 -20 90 -23 133 -23 305 0 168 4 216 22 299 69 310 211 566 436
783 214 207 461 338 756 400 122 26 460 26 580 0 86 -19 105 -26 83 -34 -30
-11 -80 -51 -100 -82 -50 -74 -16 -198 64 -236 70 -33 101 -27 348 74 127 52
244 104 261 117 40 29 64 80 64 134 0 49 -179 501 -213 539 -27 29 -94 61
-127 60 -14 0 -38 -5 -54 -9z"/>
<path d="M3975 3506 c-61 -27 -105 -97 -105 -165 0 -13 23 -73 50 -132 110
-237 145 -398 145 -664 -1 -203 -14 -290 -70 -460 -171 -524 -610 -909 -1158
-1017 -159 -31 -387 -31 -545 0 -62 13 -125 27 -139 33 -27 10 -27 10 32 43
94 52 131 125 105 209 -25 85 -118 140 -197 117 -21 -5 -137 -61 -258 -123
-252 -131 -275 -151 -283 -241 -4 -53 -2 -60 112 -283 131 -256 163 -297 238
-308 118 -18 221 93 191 207 -6 21 -7 38 -4 38 4 0 47 -9 96 -19 318 -69 645
-49 969 59 541 181 979 620 1161 1162 120 358 127 749 20 1120 -29 99 -100
271 -142 343 -47 81 -141 115 -218 81z"/>
<path d="M2460 3494 c-121 -24 -246 -90 -336 -179 -132 -131 -191 -284 -181
-470 9 -164 67 -294 181 -409 l70 -69 -44 -267 c-41 -249 -43 -269 -30 -315
18 -63 89 -139 145 -154 53 -15 537 -15 590 0 56 15 127 91 145 154 13 46 11
66 -30 315 l-44 267 71 71 c79 78 140 187 168 297 19 76 19 214 0 290 -53 208
-222 384 -432 451 -48 15 -226 27 -273 18z"/>
</g>
</svg>
