<?xml version="1.0" standalone="no"?>
<!DOCTYPE svg PUBLIC "-//W3C//DTD SVG 20010904//EN"
 "http://www.w3.org/TR/2001/REC-SVG-20010904/DTD/svg10.dtd">
<svg version="1.0" xmlns="http://www.w3.org/2000/svg"
 width="512.000000pt" height="512.000000pt" viewBox="0 0 512.000000 512.000000"
 preserveAspectRatio="xMidYMid meet">

<g transform="translate(0.000000,512.000000) scale(0.100000,-0.100000)"
fill="#000000" stroke="none">
<path d="M712 4836 c-207 -51 -389 -237 -431 -444 -15 -74 -15 -1670 0 -1744
34 -164 159 -324 312 -397 104 -50 160 -61 302 -61 l114 0 4 -717 c3 -635 5
-724 20 -773 63 -208 228 -368 429 -415 94 -22 2102 -22 2196 0 194 46 353
193 420 390 l27 80 3 718 3 717 117 0 c141 0 219 17 316 68 141 73 263 235
295 390 15 74 15 1670 0 1744 -32 155 -154 317 -295 390 -138 72 -2 68 -1989
67 -1418 -1 -1801 -3 -1843 -13z m3669 -329 c47 -23 103 -79 126 -126 17 -34
18 -84 18 -861 0 -923 5 -857 -72 -933 -59 -60 -94 -72 -225 -75 l-118 -4 0
481 0 481 49 0 c118 0 195 124 142 227 -11 23 -37 51 -58 64 l-38 24 -1645 0
c-1642 0 -1645 0 -1680 -21 -138 -81 -79 -294 81 -294 l49 0 0 -481 0 -481
-117 4 c-132 3 -167 15 -226 75 -77 76 -72 14 -75 913 -2 591 0 816 9 845 22
75 86 143 163 172 23 9 464 11 1806 10 1693 -2 1777 -3 1811 -20z m-1741
-1599 c18 -13 43 -36 54 -51 21 -28 21 -40 26 -608 l5 -579 185 186 c102 102
194 190 205 196 62 35 134 26 189 -23 52 -45 64 -128 28 -194 -6 -11 -165
-174 -354 -362 -297 -296 -348 -342 -381 -348 -90 -17 -84 -21 -455 348 -189
188 -348 351 -354 362 -36 64 -25 140 26 191 51 51 127 62 191 26 11 -6 103
-94 205 -196 l185 -186 5 579 c5 568 5 580 26 608 35 48 82 73 134 73 32 0 57
-7 80 -22z"/>
</g>
</svg>
